<svg width="70" height="80" viewBox="0 0 70 80" fill="none" xmlns="http://www.w3.org/2000/svg">
<g clip-path="url(#clip0_2_274)">
<path d="M52.4919 0C40.8631 0 38.1346 11.8879 37.6149 15.2659C36.8028 15.1035 35.9258 15.0061 34.9838 15.0061C34.0418 15.0061 33.1647 15.1035 32.3527 15.2659C31.833 11.8879 29.1044 0 17.4756 0C1.4942 0 0.0649652 32.3183 0 33.715C0 34.3971 0.519722 34.9817 1.20186 35.0142C1.20186 35.0142 1.23434 35.0142 1.26682 35.0142C1.94896 35.0142 2.50116 34.4945 2.50116 33.8124C2.50116 33.4876 3.86543 2.50102 17.5081 2.50102C27.935 2.50102 29.7541 14.0641 29.9814 16.078C29.1694 16.5002 28.4872 17.0524 27.935 17.7345C26.2784 19.6833 26.181 22.1194 26.2135 23.2887C25.6288 23.9058 24.7193 25.1401 23.8097 27.2188L19.9118 24.2956L18.7425 18.514C18.6775 18.1892 18.4826 17.8969 18.2227 17.7345L14.4872 15.2335C13.9026 14.8437 13.123 15.0061 12.7657 15.5907C12.4084 16.1754 12.5383 16.9549 13.123 17.3122L16.4362 19.5209L17.5731 25.27C17.6381 25.5623 17.8005 25.8547 18.0603 26.0171L22.9327 29.6874C22.1531 32.2209 21.536 35.5989 21.3411 40.0162H16.2738C15.6566 40.0162 15.1369 40.471 15.0394 41.0556L13.8701 48.0715L9.25754 51.5144C8.70534 51.9367 8.60789 52.7162 8.99768 53.2684C9.25754 53.5932 9.61485 53.7556 10.0046 53.7556C10.2645 53.7556 10.5244 53.6581 10.7517 53.4957L15.7541 49.7605C16.0139 49.5656 16.1763 49.2732 16.2413 48.9809L17.3132 42.5173H21.2436C21.2436 49.728 22.2506 55.2497 23.7448 59.4397L16.6961 65.3187C16.3387 65.611 16.1763 66.1307 16.2738 66.5855L18.5476 75.745L15.5267 77.7588C14.942 78.1486 14.8121 78.9281 15.1694 79.4803C15.3968 79.8376 15.819 80.0325 16.2088 80.0325C16.4362 80.0325 16.6961 79.9675 16.891 79.8376L20.6265 77.3366C21.0812 77.0443 21.2761 76.4921 21.1462 76.0049L18.8399 66.7804L24.6543 61.9407C28.4223 70.4182 34.0093 72.3346 34.5615 72.497C34.6914 72.5294 34.7889 72.5619 34.9188 72.5619C35.0487 72.5619 35.1462 72.5619 35.2761 72.497C35.8283 72.3346 41.3828 70.3857 45.1833 61.9407L50.9977 66.7804L48.6914 76.0049C48.5615 76.5246 48.7564 77.0443 49.2111 77.3366L52.9466 79.8376C53.174 79.9675 53.4014 80.0325 53.6288 80.0325C54.0186 80.0325 54.4408 79.8376 54.6682 79.4803C55.058 78.8957 54.8956 78.1161 54.3109 77.7588L51.29 75.745L53.5638 66.5855C53.6937 66.1307 53.5313 65.6435 53.1415 65.3187L46.0928 59.4397C47.5545 55.2497 48.594 49.728 48.594 42.5173H52.5244L53.5963 48.9809C53.6613 49.3057 53.8237 49.5981 54.0835 49.7605L59.0859 53.4957C59.3132 53.6581 59.5731 53.7556 59.833 53.7556C60.2227 53.7556 60.5801 53.5932 60.8399 53.2684C61.2622 52.7162 61.1323 51.9367 60.5801 51.5144L55.9675 48.0715L54.7982 41.0556C54.7007 40.4385 54.181 40.0162 53.5638 40.0162H48.4965C48.3341 35.5989 47.6845 32.2209 46.9049 29.6874L51.7773 26.0171C52.0371 25.8222 52.1995 25.5623 52.2645 25.27L53.4014 19.5209L56.7146 17.3122C57.2993 16.9225 57.4292 16.1429 57.0719 15.5907C56.7146 15.0386 55.9026 14.8437 55.3504 15.2335L51.6149 17.7345C51.355 17.9294 51.1601 18.1892 51.0951 18.514L49.9258 24.2956L46.0278 27.2188C45.1183 25.1076 44.1763 23.8733 43.6241 23.2887C43.6891 22.1194 43.5592 19.6833 41.9026 17.7345C41.3179 17.0524 40.6357 16.5002 39.8562 16.078C40.0835 14.0641 41.9026 2.50102 52.3295 2.50102C65.9722 2.50102 67.304 33.4876 67.3364 33.8124C67.3364 34.4945 67.9211 35.0142 68.5708 35.0142C68.5708 35.0142 68.5708 35.0142 68.6357 35.0142C69.3179 35.0142 69.8701 34.3971 69.8376 33.715C69.7726 32.3508 68.3434 0 52.3295 0L52.4919 0ZM23.7448 42.4848C23.7448 31.084 26.7007 26.5043 27.8376 25.1726L33.7494 27.1539V69.2489C30.5661 67.2351 23.7448 60.8364 23.7448 42.5173V42.4848ZM36.2506 69.2164V27.1539L42.1624 25.1726C43.2993 26.5043 46.2552 31.084 46.2552 42.4848C46.2552 60.674 39.4339 67.1701 36.2506 69.2164ZM41.3179 22.8339L35.0162 24.9452L28.7146 22.8339C28.7146 21.957 28.877 20.4629 29.8515 19.326C30.891 18.1242 32.6125 17.5071 35.0162 17.5071C37.42 17.5071 39.1415 18.1242 40.181 19.326C41.1879 20.4953 41.3179 21.9894 41.3179 22.8339Z" fill="#9DB424"/>
</g>
<defs>
<clipPath id="clip0_2_274">
<rect width="70" height="80" fill="white"/>
</clipPath>
</defs>
</svg>
