<svg width="81" height="80" viewBox="0 0 81 80" fill="none" xmlns="http://www.w3.org/2000/svg">
<g clip-path="url(#clip0_2_140)">
<path d="M54.1494 8.42261C44.9584 8.42261 42.8306 17.7909 42.3873 20.4802C41.7371 20.362 41.0574 20.2734 40.3186 20.2734C39.5798 20.2734 38.8705 20.3325 38.2499 20.4802C37.8361 17.8205 35.6788 8.42261 26.4878 8.42261C13.8391 8.42261 12.7161 33.9564 12.657 35.0499C12.657 35.5818 13.0707 36.0547 13.6027 36.0842C13.6027 36.0842 13.6027 36.0842 13.6322 36.0842C14.1642 36.0842 14.6075 35.6705 14.6075 35.1385C14.6075 34.9021 15.7009 10.4322 26.4582 10.4322C34.7035 10.4322 36.1221 19.5641 36.2994 21.16C35.6788 21.485 35.1173 21.9283 34.674 22.4603C33.3736 23.997 33.285 25.918 33.3145 26.8341C32.8712 27.307 32.1324 28.2822 31.3936 29.9372L28.3201 27.6321L27.4039 23.0513C27.3448 22.7854 27.1971 22.5785 26.9902 22.4307L24.0349 20.4507C23.5916 20.1552 22.971 20.2734 22.6755 20.7167C22.3799 21.16 22.4981 21.7806 22.9414 22.0761L25.5716 23.8197L26.4878 28.3413C26.5469 28.5778 26.6651 28.7846 26.872 28.9324L30.7434 31.8286C30.1228 33.8382 29.6204 36.498 29.5022 39.9852H25.5125C25.0397 39.9852 24.626 40.3399 24.5373 40.8127L23.6211 46.3391L19.9861 49.058C19.5428 49.3831 19.4542 50.0037 19.7793 50.447C19.9861 50.713 20.2817 50.8312 20.5772 50.8312C20.7841 50.8312 20.9909 50.7721 21.1682 50.6243L25.1284 47.669C25.3352 47.5212 25.4534 47.2848 25.5125 47.0484L26.3696 41.9653H29.4726C29.4726 47.669 30.2706 52.0133 31.4527 55.3232L25.8967 59.9631C25.6012 60.1995 25.483 60.5837 25.5716 60.9679L27.3744 68.1788L24.9806 69.7747C24.5373 70.0702 24.4191 70.6908 24.7146 71.1341C24.8919 71.4296 25.217 71.5774 25.5421 71.5774C25.7194 71.5774 25.9263 71.5183 26.074 71.4001L29.0294 69.42C29.384 69.1836 29.5318 68.7699 29.4431 68.3561L27.6108 61.0565L32.1915 57.2442C35.1764 63.9232 39.5798 65.4599 39.9935 65.5781C40.0822 65.5781 40.1708 65.6077 40.289 65.6077C40.4073 65.6077 40.4664 65.6077 40.5846 65.5781C41.0279 65.4304 45.4313 63.9232 48.3866 57.2442L52.9673 61.0565L51.135 68.3561C51.0463 68.7699 51.1941 69.1836 51.5487 69.42L54.504 71.4001C54.6814 71.5183 54.8587 71.5774 55.036 71.5774C55.3611 71.5774 55.6566 71.4296 55.8635 71.1341C56.159 70.6908 56.0408 70.0702 55.5975 69.7747L53.2037 68.1788L55.0064 60.9679C55.0951 60.6132 54.9769 60.1995 54.6814 59.9631L49.1254 55.3232C50.278 52.0133 51.1054 47.6395 51.1054 41.9653H54.2085L55.0656 47.0484C55.0951 47.2848 55.2429 47.5212 55.4497 47.669L59.4098 50.6243C59.5872 50.7721 59.794 50.8312 60.0009 50.8312C60.2964 50.8312 60.592 50.6834 60.7988 50.447C61.1239 50.0037 61.0353 49.3831 60.592 49.058L56.9569 46.3391L56.0408 40.8127C55.9521 40.3399 55.5384 39.9852 55.0656 39.9852H51.0759C50.9281 36.498 50.4257 33.8086 49.8347 31.8286L53.7061 28.9324C53.913 28.7846 54.0312 28.5778 54.0903 28.3413L55.0064 23.8197L57.6367 22.0761C58.08 21.7806 58.1982 21.16 57.9026 20.7167C57.6071 20.2734 56.9865 20.1256 56.5432 20.4507L53.5879 22.4307C53.381 22.5785 53.2333 22.8149 53.1742 23.0513L52.258 27.6321L49.1845 29.9372C48.4752 28.2822 47.7364 27.307 47.2636 26.8341C47.3227 25.918 47.234 23.997 45.9041 22.4603C45.4608 21.9283 44.8993 21.485 44.2787 21.16C44.456 19.5641 45.9041 10.4322 54.1199 10.4322C64.8772 10.4322 65.9706 34.9021 65.9706 35.1385C65.9706 35.6705 66.4139 36.0842 66.9459 36.0842C66.9459 36.0842 66.9459 36.0842 66.9754 36.0842C67.5074 36.0842 67.9507 35.6114 67.9211 35.0499C67.8916 33.9564 66.739 8.42261 54.0903 8.42261H54.1494ZM31.4527 41.9653C31.4527 32.9812 33.7874 29.3461 34.674 28.2822L39.3434 29.8485V63.0957C36.8313 61.5294 31.4527 56.4463 31.4527 41.9653ZM41.3234 63.0661V29.8485L45.9928 28.2822C46.8794 29.3461 49.2141 32.9516 49.2141 41.9653C49.2141 56.328 43.8354 61.4407 41.3234 63.0661ZM45.3131 26.4499L40.3186 28.1049L35.3241 26.4499C35.3241 25.7702 35.4424 24.5881 36.2107 23.672C37.0382 22.7263 38.3977 22.2534 40.289 22.2534C42.1804 22.2534 43.5694 22.7263 44.3674 23.672C45.1357 24.5881 45.2835 25.7702 45.254 26.4499H45.3131Z" fill="#D8A066"/>
<path d="M40.3482 80C30.0933 80 19.8384 76.099 12.0364 68.297C-3.56762 52.693 -3.56762 27.307 12.0364 11.703C27.6404 -3.901 53.0264 -3.901 68.6304 11.703C84.2344 27.307 84.2344 52.693 68.6304 68.297C60.8284 76.099 50.5735 80 40.3186 80H40.3482ZM40.3482 1.98005C30.5957 1.98005 20.8727 5.67418 13.4549 13.092C-1.41025 27.9276 -1.41025 52.0724 13.4254 66.908C28.261 81.7436 52.4058 81.7436 67.2414 66.908C82.077 52.0724 82.077 27.9276 67.2414 13.092C59.8236 5.67418 50.0711 1.98005 40.3482 1.98005Z" fill="#D8A066"/>
<path d="M67.2382 11.6992L12.028 66.9094L13.4281 68.3095L68.6383 13.0993L67.2382 11.6992Z" fill="#D8A066"/>
</g>
<defs>
<clipPath id="clip0_2_140">
<rect width="80" height="80" fill="white" transform="translate(0.333374)"/>
</clipPath>
</defs>
</svg>
