<svg width="80" height="80" viewBox="0 0 80 80" fill="none" xmlns="http://www.w3.org/2000/svg">
<g clip-path="url(#clip0_1_119)">
<path d="M47.7744 66.7125L43.8115 66.1348L42.0227 62.5309C41.6375 61.7607 40.8669 61.2655 39.9863 61.2655C39.1057 61.2655 38.3351 61.7607 37.9498 62.5309L36.1886 66.1348L32.2257 66.7125C31.3726 66.8501 30.6571 67.4278 30.3819 68.2531C30.1067 69.0784 30.3268 69.9587 30.9598 70.564L33.8219 73.37L33.1614 77.3315C33.0238 78.1843 33.354 79.0371 34.0695 79.5598C34.4548 79.8349 34.9226 80 35.3905 80C35.7482 80 36.106 79.9175 36.4362 79.7249L39.9863 77.8542L43.5363 79.7249C44.3069 80.1376 45.215 80.055 45.9306 79.5598C46.6461 79.0646 46.9763 78.2118 46.8387 77.3315L46.1507 73.3975L49.0128 70.5915C49.6457 69.9862 49.8659 69.1059 49.5907 68.2531C49.3155 67.4278 48.6275 66.8226 47.7469 66.7125H47.7744ZM44.4995 71.7469C43.9767 72.2696 43.729 73.0124 43.8391 73.7552L44.4995 77.5791L41.0596 75.7634C40.3991 75.4058 39.601 75.4058 38.9405 75.7634L35.5006 77.5791L36.161 73.7552C36.2986 73.0124 36.051 72.2696 35.5006 71.7469L32.7211 69.0234L36.5738 68.4732C37.3169 68.3631 37.9498 67.8955 38.2801 67.2352L40.0138 63.7414L41.7476 67.2352C42.0778 67.8955 42.7107 68.3631 43.4538 68.4732L47.3065 69.0234L44.527 71.7469H44.4995Z" fill="#D8A066"/>
<path d="M75.7619 52.7373L71.9917 51.3618L71.001 47.4828C70.7808 46.63 70.1204 45.9972 69.2673 45.8322C68.4141 45.6396 67.561 45.9697 67.0106 46.6575L64.5339 49.7937L60.5435 49.5461C59.6628 49.4911 58.8648 49.9312 58.4245 50.674C57.9841 51.4168 58.0117 52.3521 58.507 53.0674L60.7361 56.3961L59.2501 60.11C58.9198 60.9078 59.0849 61.8157 59.6629 62.4759C60.2408 63.1087 61.1214 63.3838 61.9745 63.1362L65.8273 62.0358L68.9095 64.5942C69.3223 64.9519 69.8452 65.1169 70.3405 65.1169C70.6432 65.1169 70.9735 65.0619 71.2762 64.9243C72.0743 64.5667 72.5971 63.8239 72.6247 62.9436L72.7898 58.9546L76.1747 56.8088C76.9178 56.3411 77.303 55.5158 77.2205 54.663C77.1379 53.8102 76.56 53.0674 75.7619 52.7648V52.7373ZM71.5239 56.9739C70.8909 57.3865 70.5056 58.0468 70.4781 58.8171L70.3405 62.696L67.3409 60.2201C66.9281 59.89 66.4052 59.6974 65.8823 59.6974C65.6622 59.6974 65.4695 59.7249 65.2769 59.7799L61.5342 60.8253L62.9652 57.2215C63.2404 56.5337 63.1579 55.7359 62.7451 55.1307L60.571 51.8845L64.4513 52.132C65.1943 52.1871 65.9098 51.8569 66.3777 51.2792L68.7994 48.2256L69.7626 51.9945C69.9552 52.7098 70.4781 53.315 71.1661 53.5626L74.8262 54.9106L71.5239 57.0014V56.9739Z" fill="#D8A066"/>
<path d="M19.429 49.5186L15.4386 49.7937L12.9618 46.6575C12.4114 45.9697 11.5583 45.6671 10.7052 45.8322C9.85207 46.0248 9.1916 46.6575 8.97144 47.4828L7.98073 51.3618L4.21052 52.7648C3.38493 53.0674 2.83453 53.7827 2.75197 54.663C2.66941 55.5158 3.05469 56.3411 3.79772 56.8088L7.18266 58.9546L7.34777 62.9711C7.37529 63.8514 7.89817 64.5942 8.69624 64.9519C8.99896 65.0894 9.30168 65.1444 9.63192 65.1444C10.1548 65.1444 10.6501 64.9519 11.0905 64.6217L14.1727 62.0633L18.0254 63.1362C18.851 63.3838 19.7317 63.1362 20.3371 62.4759C20.915 61.8157 21.0801 60.9354 20.7499 60.11L19.2638 56.3961L21.4929 53.0674C21.9883 52.3521 22.0158 51.4168 21.5755 50.674C21.1352 49.9312 20.3371 49.4911 19.4565 49.5461L19.429 49.5186ZM17.2824 55.1032C16.8696 55.7359 16.7871 56.5062 17.0623 57.1939L18.5208 60.7978L14.7781 59.7524C14.0626 59.5598 13.292 59.7249 12.7141 60.1926L9.71448 62.696L9.54936 58.8171C9.52184 58.0743 9.13656 57.3865 8.5036 57.0014L5.20123 54.9381L8.86136 53.5901C9.54936 53.3425 10.0998 52.7373 10.2649 52.022L11.2281 48.2531L13.6498 51.3067C14.1176 51.8845 14.8332 52.2146 15.5762 52.1596L19.4565 51.912L17.3099 55.1582L17.2824 55.1032Z" fill="#D8A066"/>
<path d="M67.9739 11.3893C60.4334 4.04402 50.5263 0 40.0138 0C29.5012 0 19.5666 4.04402 12.0261 11.3893C4.54076 18.7345 0.247678 28.5282 0 39.0096C0 39.5873 0.192638 40.11 0.605435 40.5227C1.01823 40.9353 1.54111 41.1554 2.11902 41.1554H20.9976C21.2728 45.6946 23.1717 50.1788 26.6667 53.5901C30.3268 57.1939 35.1428 59.0371 40.0138 59.0371C43.4537 59.0371 46.8937 58.1018 49.9759 56.2036C50.5263 55.8735 50.6914 55.1307 50.3612 54.5805C50.031 54.0303 49.2879 53.8652 48.7375 54.1953C42.1878 58.2118 33.7943 57.2765 28.2903 51.8845C21.7131 45.447 21.603 34.8831 28.0151 28.2806C33.0237 23.1362 40.7293 21.7607 47.1964 24.8418C47.7743 25.1169 48.4348 25.1719 49.0678 25.0069L56.388 23.0536C56.5807 22.9986 56.7183 23.1087 56.7733 23.1637C56.8283 23.2187 56.9109 23.3563 56.8834 23.5488L54.9295 30.8666C54.7644 31.4993 54.8194 32.1596 55.0946 32.7373C57.9567 38.7345 56.9935 45.8322 52.6453 50.8391C52.2325 51.3342 52.2876 52.077 52.7554 52.4897C53.2508 52.9023 53.9938 52.8473 54.4066 52.3796C57.1861 49.1609 58.7547 45.1719 59.0024 41.1004H77.8535C78.4314 41.1004 78.9543 40.8803 79.3671 40.4677C79.7798 40.055 79.9725 39.5048 79.9725 38.9546C79.7248 28.4732 75.4317 18.6795 67.9463 11.3343L67.9739 11.3893ZM20.1995 8.06052L23.5845 13.9752C21.3003 15.4333 19.1813 17.1664 17.3099 19.2297C12.3564 24.6492 9.49432 31.5543 9.21913 38.8446H2.33918C2.72446 25.9147 9.82456 14.553 20.172 8.06052H20.1995ZM57.1861 31.5268L59.14 24.2091C59.3877 23.2462 59.14 22.2558 58.4245 21.5681C57.7365 20.8803 56.7458 20.6052 55.7826 20.8528L48.4623 22.8061C48.4623 22.8061 48.2697 22.8061 48.1871 22.8061C40.8118 19.2847 32.033 20.8528 26.3089 26.7125C23.0065 30.0963 21.2178 34.4429 20.9426 38.8446H11.5308C12.1087 24.8143 23.2267 12.9849 37.3168 11.6919C37.9498 11.6369 38.4451 11.0591 38.3901 10.4264C38.3351 9.79367 37.7571 9.29849 37.1242 9.35351C33.0788 9.73865 29.171 10.8941 25.6484 12.7648L22.2085 6.87758C27.5198 3.989 33.5741 2.36589 39.9862 2.36589C46.3984 2.36589 52.4527 4.01651 57.764 6.90509L54.3516 12.7923C50.8015 10.9216 46.8937 9.73865 42.8483 9.38102C42.2153 9.326 41.6374 9.79367 41.5824 10.4539C41.5273 11.0867 41.9952 11.6644 42.6557 11.7194C56.7458 13.0124 67.8638 24.8418 68.4417 38.8721H59.0299C58.8923 36.4787 58.2869 34.0853 57.2136 31.8294C57.1861 31.7469 57.1586 31.6644 57.2136 31.5543L57.1861 31.5268ZM70.7809 38.8171C70.5057 31.5268 67.6711 24.5942 62.6901 19.2022C60.7912 17.1389 58.6447 15.3508 56.333 13.8927L59.8005 8.03301C70.1754 14.5254 77.248 25.8872 77.6608 38.8171H70.7809Z" fill="#D8A066"/>
<path d="M40.0138 26.4924C32.5559 26.4924 26.5016 32.5447 26.5016 40C26.5016 47.4553 32.5559 53.5076 40.0138 53.5076C47.4717 53.5076 53.526 47.4553 53.526 40C53.526 32.5447 47.4717 26.4924 40.0138 26.4924ZM40.0138 51.1417C33.8494 51.1417 28.8683 46.1348 28.8683 40C28.8683 33.8652 33.8769 28.8583 40.0138 28.8583C46.1507 28.8583 51.1593 33.8652 51.1593 40C51.1593 46.1348 46.1507 51.1417 40.0138 51.1417Z" fill="#D8A066"/>
<path d="M42.0778 44.099C40.8394 45.0069 39.1882 45.0069 37.9498 44.099C37.427 43.7139 36.6839 43.8239 36.3262 44.3466C35.9409 44.8693 36.051 45.6121 36.5738 45.9697C37.5921 46.7125 38.8029 47.0977 40.0138 47.0977C41.2247 47.0977 42.4356 46.7125 43.4538 45.9697C43.9767 45.5846 44.0867 44.8693 43.7015 44.3466C43.3162 43.8239 42.6007 43.7139 42.0778 44.099Z" fill="#D8A066"/>
<path d="M36.8765 37.9917V35.7634C36.8765 35.1032 36.3536 34.5805 35.6931 34.5805C35.0326 34.5805 34.5098 35.1032 34.5098 35.7634V37.9917C34.5098 38.652 35.0326 39.1747 35.6931 39.1747C36.3536 39.1747 36.8765 38.652 36.8765 37.9917Z" fill="#D8A066"/>
<path d="M44.2793 34.608C43.6188 34.608 43.0959 35.1307 43.0959 35.7909V38.0193C43.0959 38.6795 43.6188 39.2022 44.2793 39.2022C44.9398 39.2022 45.4627 38.6795 45.4627 38.0193V35.7909C45.4627 35.1307 44.9398 34.608 44.2793 34.608Z" fill="#D8A066"/>
</g>
<defs>
<clipPath id="clip0_1_119">
<rect width="80" height="80" fill="white"/>
</clipPath>
</defs>
</svg>
