<svg width="60" height="80" viewBox="0 0 60 80" fill="none" xmlns="http://www.w3.org/2000/svg">
<g clip-path="url(#clip0_2_277)">
<path d="M35.3646 63.6632C36.3829 63.6632 37.2084 62.8488 37.2084 61.8442C37.2084 60.8396 36.3829 60.0253 35.3646 60.0253C34.3463 60.0253 33.5209 60.8396 33.5209 61.8442C33.5209 62.8488 34.3463 63.6632 35.3646 63.6632Z" fill="#9DB424"/>
<path d="M20.6146 63.6632C21.6329 63.6632 22.4584 62.8488 22.4584 61.8442C22.4584 60.8396 21.6329 60.0253 20.6146 60.0253C19.5963 60.0253 18.7709 60.8396 18.7709 61.8442C18.7709 62.8488 19.5963 63.6632 20.6146 63.6632Z" fill="#9DB424"/>
<path d="M57.4897 7.27579C56.4654 7.27579 55.6459 8.08421 55.6459 9.09474C55.6459 12.0926 53.1535 14.5516 50.1147 14.5516C47.0759 14.5516 44.5834 12.0926 44.5834 9.09474C44.5834 4.07579 40.4521 0 35.3647 0C30.2773 0 26.1459 4.07579 26.1459 9.09474V14.6189C16.1077 15.3937 8.42545 22.5347 5.42082 34.0884C5.18181 35.0653 5.76225 36.0421 6.75241 36.3116C7.74257 36.5474 8.73274 35.9747 9.00588 34.9979C11.8057 24.32 18.7368 18.1895 28.0238 18.1895C37.3109 18.1895 44.242 24.32 47.0418 34.9979C47.2466 35.8063 47.9978 36.3789 48.8172 36.3453C48.9538 36.3453 49.1245 36.3453 49.2952 36.2779C50.2854 36.0421 50.8658 35.0316 50.6268 34.0547C47.6222 22.5011 39.9399 15.36 29.9017 14.5853V9.06105C29.9017 6.06316 32.3942 3.60421 35.433 3.60421C38.4717 3.60421 40.9642 6.06316 40.9642 9.06105C40.9642 14.08 45.0956 18.1558 50.183 18.1558C55.2704 18.1558 59.4017 14.08 59.4017 9.06105C59.4017 8.05053 58.5823 7.24211 57.558 7.24211L57.4897 7.27579Z" fill="#9DB424"/>
<path d="M46.4271 40.0168C41.3397 40.0168 37.2084 44.0926 37.2084 49.1116C37.2084 50.1221 38.0278 50.9305 39.0521 50.9305C40.0764 50.9305 40.8959 50.1221 40.8959 49.1116C40.8959 46.1137 43.3883 43.6547 46.4271 43.6547C49.4659 43.6547 51.9584 46.1137 51.9584 49.1116C51.9584 52.1095 49.4659 54.5684 46.4271 54.5684C45.4028 54.5684 44.5834 55.3768 44.5834 56.3874C44.5834 57.3979 45.3345 58.139 46.3247 58.1726C43.7981 65.5832 39.0863 70.4337 32.9063 72.0842C31.9844 70.3326 30.1407 69.0863 27.9896 69.0863C25.8386 69.0863 23.9948 70.2989 23.073 72.0842C16.893 70.4337 12.1812 65.5832 9.65455 58.1726C10.6106 58.1053 11.3959 57.3305 11.3959 56.3874C11.3959 55.4442 10.5764 54.5684 9.55212 54.5684C6.51335 54.5684 4.02087 52.1095 4.02087 49.1116C4.02087 46.1137 6.51335 43.6547 9.55212 43.6547C12.5909 43.6547 15.0834 46.1137 15.0834 49.1116C15.0834 50.1221 15.9028 50.9305 16.9271 50.9305C17.9514 50.9305 18.7709 50.1221 18.7709 49.1116C18.7709 44.0926 14.6395 40.0168 9.55212 40.0168C4.46474 40.0168 0.333374 44.0926 0.333374 49.1116C0.333374 52.6821 2.48442 55.7811 5.52319 57.2632C8.22053 67.1663 14.4346 73.7347 22.5608 75.7221C23.1071 78.1811 25.3264 80.0337 27.9555 80.0337C30.5845 80.0337 32.8039 78.1811 33.3502 75.7221C41.5105 73.7347 47.6904 67.1663 50.3878 57.2632C53.4607 55.7811 55.5776 52.7158 55.5776 49.1116C55.5776 44.0926 51.4462 40.0168 46.3588 40.0168H46.4271ZM27.9896 76.3621C26.9653 76.3621 26.1459 75.5537 26.1459 74.5432C26.1459 73.5326 26.9653 72.7242 27.9896 72.7242C29.0139 72.7242 29.8334 73.5326 29.8334 74.5432C29.8334 75.5537 29.0139 76.3621 27.9896 76.3621Z" fill="#9DB424"/>
</g>
<defs>
<clipPath id="clip0_2_277">
<rect width="59" height="80" fill="white" transform="translate(0.333374)"/>
</clipPath>
</defs>
</svg>
