<svg width="81" height="68" viewBox="0 0 81 68" fill="none" xmlns="http://www.w3.org/2000/svg">
<g clip-path="url(#clip0_2_145)">
<path d="M34.0538 14.2937L32.9306 20.7832C32.8463 21.2587 33.0429 21.7622 33.436 22.042C33.8291 22.3217 34.3626 22.3776 34.8119 22.1538L40.6526 19.1049L46.4932 22.1538C46.6898 22.2657 46.8863 22.2937 47.0829 22.2937C47.3637 22.2937 47.6164 22.2098 47.8411 22.042C48.2342 21.7622 48.4307 21.2587 48.3465 20.7832L47.2233 14.2937L51.9407 9.70629C52.3058 9.37063 52.4181 8.83916 52.2777 8.39161C52.1373 7.91608 51.7161 7.58042 51.2387 7.52448L44.7242 6.57343L41.8319 0.671329C41.4107 -0.223776 39.9506 -0.223776 39.5013 0.671329L36.581 6.57343L30.0664 7.52448C29.589 7.60839 29.1678 7.94406 29.0274 8.39161C28.887 8.86713 29.0274 9.37063 29.3644 9.70629L34.0818 14.2937H34.0538ZM37.6199 9.00699C38.0411 8.95105 38.4062 8.67133 38.6027 8.30769L40.6526 4.13986L42.7024 8.30769C42.899 8.6993 43.264 8.95105 43.6852 9.00699L48.2903 9.67832L44.9488 12.9231C44.6399 13.2308 44.4995 13.6504 44.5838 14.0699L45.37 18.6294L41.2422 16.4755C41.0457 16.3636 40.8491 16.3357 40.6526 16.3357C40.456 16.3357 40.2314 16.3916 40.0629 16.4755L35.9351 18.6294L36.7214 14.0699C36.8056 13.6504 36.6652 13.2308 36.3563 12.9231L33.0148 9.67832L37.6199 9.00699Z" fill="#D8A066"/>
<path d="M80.0489 42.6294L69.0696 25.6224C68.508 24.7552 67.6375 24.1399 66.6266 23.9441C65.6157 23.7203 64.5768 23.9161 63.7063 24.4755L56.0966 29.3427C54.468 30.4056 53.8783 32.4755 54.6645 34.1818L40.7087 35.2727L26.6968 34.042C27.4831 32.3077 26.8934 30.2378 25.2647 29.2028L21.4739 26.7692L17.6831 24.3357C16.8126 23.7762 15.7737 23.5804 14.7628 23.8042C13.7519 24.028 12.8814 24.6154 12.3198 25.5105L1.28438 42.4895C0.722783 43.3566 0.526222 44.3916 0.750863 45.3986C0.975503 46.4056 1.56518 47.2727 2.46374 47.8322L10.0734 52.6993C10.7193 53.1189 11.4213 53.3147 12.1794 53.3147C12.4602 53.3147 12.741 53.2867 13.0218 53.2308C13.3869 53.1469 13.6958 53.007 14.0327 52.8392L15.0717 54.7133C16.3353 56.951 18.1324 58.8531 20.2946 60.2238L30.965 67.0489C31.9197 67.6643 33.0148 67.972 34.0819 67.972C35.9632 67.972 37.7884 67.0489 38.9116 65.3986C39.3328 65.6503 39.754 65.7902 40.2033 65.8741C41.2703 67.1608 42.8709 67.8042 44.8365 67.8042C46.3528 67.8042 48.0657 67.4126 49.9471 66.6294C50.0032 66.6294 50.0313 66.6014 50.0875 66.5734L61.1229 60.3636C63.2851 58.993 65.0822 57.0629 66.3458 54.8531L67.3848 52.979C67.6936 53.1469 68.0306 53.2867 68.3957 53.3706C68.6765 53.4266 68.9572 53.4545 69.238 53.4545C69.9681 53.4545 70.6982 53.2308 71.3441 52.8392L78.9537 47.972C79.8242 47.4126 80.442 46.5455 80.6385 45.5385C80.8632 44.5315 80.6666 43.4965 80.105 42.6294H80.0489ZM12.4322 50.7413C12.0952 50.8252 11.7302 50.7413 11.4494 50.5734L3.83967 45.7063C3.55887 45.5105 3.33423 45.2308 3.27807 44.8951C3.19382 44.5594 3.27807 44.1958 3.44655 43.9161L14.4258 26.9091C14.6224 26.6294 14.9032 26.4056 15.2402 26.3497C15.3244 26.3497 15.4367 26.3217 15.521 26.3217C15.7737 26.3217 15.9983 26.4056 16.223 26.5175L18.9467 28.2518L15.0998 34.1818C14.7066 34.7692 14.8751 35.5804 15.4929 35.972C15.7175 36.1119 15.9422 36.1678 16.1949 36.1678C16.6161 36.1678 17.0373 35.972 17.29 35.5804L21.1089 29.6504L23.8326 31.3846C24.1134 31.5804 24.3381 31.8601 24.3942 32.1958C24.4504 32.5315 24.3942 32.8951 24.2258 33.1748L13.2465 50.1818C13.0499 50.4615 12.7691 50.6853 12.4322 50.7413ZM32.3409 64.9231L21.6705 58.0979C19.8734 56.9511 18.357 55.3566 17.3181 53.4825L15.886 50.9091L25.349 36.2517C25.5455 36.4196 25.7702 36.5315 26.051 36.5594L33.4641 37.2028C32.7902 37.8182 32.3128 38.6014 32.2286 39.6364C31.9759 42.9371 35.3455 43.4126 37.5919 43.7483C38.8555 43.9161 40.1471 44.1119 40.9334 44.5874L53.9344 52.4196C54.1591 52.5594 54.2433 52.7832 54.2714 52.8951C54.3276 53.0909 54.2714 53.3147 54.1591 53.4825L53.1763 55.021C52.9516 55.3566 52.4743 55.4685 52.1373 55.2727L37.3953 46.8811C36.7775 46.5175 35.9913 46.7413 35.6263 47.3566C35.2612 47.972 35.4859 48.7552 36.1036 49.1189L49.6382 56.8392L48.5711 58.4336C47.8691 59.4965 46.4371 59.8322 45.3139 59.1888L36.2159 54.014C35.5982 53.6503 34.8119 53.8741 34.4469 54.4895C34.0819 55.1049 34.3065 55.8881 34.9243 56.2518L43.4606 61.1189L42.5059 62.6014C42.0004 63.3846 40.9615 63.6364 40.1471 63.1608L33.0148 58.993C32.3971 58.6294 31.6108 58.8252 31.2458 59.4685C30.8807 60.0839 31.1054 60.8671 31.7231 61.2308L36.6371 64.0839C35.6543 65.4266 33.773 65.8182 32.3409 64.8951V64.9231ZM59.747 58.1818L48.8519 64.3077C46.774 65.1748 44.9769 65.4266 43.6852 65.0909C44.0783 64.7832 44.4715 64.4476 44.7523 64L45.9878 62.0699C46.1843 62.0699 46.3809 62.0979 46.5494 62.0979C48.178 62.0979 49.7786 61.3147 50.7614 59.8601L52.0812 57.9021C52.2496 57.9021 52.39 57.958 52.5585 57.958C53.6817 57.958 54.7488 57.3986 55.3946 56.4196L56.3774 54.8811C56.8828 54.0979 57.0232 53.2028 56.8267 52.3077C56.6301 51.4126 56.0685 50.6853 55.3104 50.2098L52.025 48.2238C52.025 48.2238 52.1092 48.2238 52.1373 48.2238C53.9625 48.2238 55.7877 47.8322 57.1917 46.7133C57.7533 46.2657 57.8376 45.4545 57.3883 44.8951C56.939 44.3357 56.1247 44.2517 55.5631 44.6993C52.9797 46.7692 47.111 44.8951 44.9769 43.972L42.2812 42.3497C42.2812 42.3497 42.2531 42.3497 42.2251 42.3497C40.9895 41.6224 39.4451 41.3986 37.9569 41.1748C35.177 40.7832 34.7558 40.5035 34.8119 39.8322C34.9243 38.3217 38.687 37.7902 40.6807 37.8182C40.7087 37.8182 40.7368 37.8182 40.7649 37.8182L55.2823 36.6713C55.5631 36.6713 55.7877 36.5315 55.9843 36.3636L65.4192 51.021L63.9871 53.5944C62.9481 55.4685 61.4318 57.0629 59.6908 58.1538L59.747 58.1818ZM78.0552 45.007C77.9709 45.3427 77.7744 45.6224 77.4936 45.8182L69.8839 50.6853C69.2942 51.0769 68.4799 50.9091 68.0868 50.2937L57.1075 33.2867C56.7144 32.6993 56.8828 31.8881 57.5006 31.4965L60.2244 29.7622L64.0432 35.6923C64.296 36.0839 64.7172 36.2797 65.1384 36.2797C65.3911 36.2797 65.6157 36.2238 65.8404 36.0839C66.43 35.6923 66.6266 34.9091 66.2335 34.2937L62.4146 28.3357L65.1384 26.6014C65.363 26.4615 65.5876 26.4056 65.8404 26.4056C66.2616 26.4056 66.6828 26.6294 66.9355 26.993L77.9148 44C78.1113 44.2797 78.1675 44.6434 78.0833 44.979L78.0552 45.007Z" fill="#D8A066"/>
</g>
<defs>
<clipPath id="clip0_2_145">
<rect width="80" height="68" fill="white" transform="translate(0.666504)"/>
</clipPath>
</defs>
</svg>
