<svg width="81" height="80" viewBox="0 0 81 80" fill="none" xmlns="http://www.w3.org/2000/svg">
<g clip-path="url(#clip0_2_283)">
<path d="M57.9365 19.1482C59.8649 19.1482 61.4281 17.5923 61.4281 15.6729C61.4281 13.7536 59.8649 12.1976 57.9365 12.1976C56.0081 12.1976 54.4448 13.7536 54.4448 15.6729C54.4448 17.5923 56.0081 19.1482 57.9365 19.1482Z" fill="#9DB424"/>
<path d="M66.6999 28.6201L67.3846 28.109C69.5069 26.5077 71.2185 24.3612 72.314 21.908L72.759 20.8859H80.6323V20.0341L73.5805 15.3663L73.5121 14.5486C72.9301 6.40545 66.0495 0 57.9023 0C49.2074 0 42.1556 7.01874 42.1556 15.6729V21.7376L39.9306 21.0562C29.2844 17.7513 18.2618 16.0136 7.10216 15.8773H5.76711L4.08975 9.13118L0.632324 9.98296L7.20485 36.1158C7.27332 50.3237 16.7556 62.2487 30.3799 65.3492L31.7149 65.6559V80H35.275V66.0988H36.9866C38.1163 66.0988 39.3144 65.9966 40.7521 65.8262L42.0529 65.6559L48.0093 80H51.8775L45.5788 64.8722L47.2562 64.2589C58.8951 60 66.6999 48.8586 66.6999 36.5588V28.6882V28.6201ZM63.1398 26.5758V36.5247C63.1398 50.8688 51.3983 62.5554 36.9866 62.5554C22.575 62.5554 10.8334 50.8688 10.8334 36.5247V35.6729L6.69137 19.3867L8.95068 19.4549C11.1758 19.523 13.5378 19.6593 16.379 19.9319L17.5771 20.0681L21.1715 34.4123L21.2399 36.5247C21.2399 45.1789 28.2917 52.1976 36.9866 52.1976C40.581 52.1976 44.0726 50.971 46.8454 48.7564L44.3123 46.2351C42.2241 47.8024 39.6567 48.6542 36.9866 48.6542C30.2772 48.6542 24.8001 43.2027 24.8001 36.5247V33.9693L21.3426 20.477L23.91 20.8859C31.3384 22.1124 38.664 24.0886 45.7158 26.8143V15.707C45.7158 9.02896 51.1929 3.57751 57.9023 3.57751C64.6118 3.57751 70.0889 9.02896 70.0889 15.707C70.0889 20.4089 67.3846 24.6337 63.1056 26.6099L63.1398 26.5758Z" fill="#9DB424"/>
</g>
<defs>
<clipPath id="clip0_2_283">
<rect width="80" height="80" fill="white" transform="translate(0.666504)"/>
</clipPath>
</defs>
</svg>
