<svg width="272" height="52" viewBox="0 0 272 52" fill="none" xmlns="http://www.w3.org/2000/svg">
<g clip-path="url(#clip0_2_211)">
<path d="M57.6199 31.81C56.9999 31.62 56.5799 31.3 56.3599 30.85C56.1299 30.4 55.9899 29.79 55.9099 29.03H59.9699C61.2999 29.03 62.4399 28.87 63.4099 28.55C64.3699 28.23 65.1099 27.68 65.6299 26.91C66.1499 26.14 66.41 25.08 66.41 23.72C66.41 21.94 66.1599 20.56 65.6499 19.59C65.1399 18.62 64.2999 17.94 63.1399 17.56C61.9799 17.18 60.4099 16.99 58.4399 16.99C56.2799 16.99 54.5699 17.27 53.3099 17.84C52.0499 18.41 51.1599 19.41 50.6199 20.85C50.0899 22.29 49.8199 24.31 49.8199 26.92C49.8199 29.53 50.1099 31.44 50.6899 32.85C51.2699 34.26 52.2099 35.25 53.5199 35.81C54.8299 36.37 56.5499 36.65 58.6799 36.65C60.2499 36.65 61.5899 36.54 62.7199 36.33C63.8499 36.12 64.8499 35.9 65.7299 35.69V32.09H60.3499C59.1399 32.09 58.2299 32 57.6099 31.81H57.6199ZM56.1099 22.96C56.2899 22.38 56.5699 21.98 56.9499 21.75C57.3299 21.52 57.8299 21.41 58.4499 21.41C59.0699 21.41 59.5599 21.49 59.9499 21.64C60.3299 21.79 60.5999 22.04 60.7699 22.39C60.9399 22.74 61.0199 23.19 61.0199 23.76C61.0199 24.38 60.8899 24.8 60.6299 25.04C60.3699 25.28 59.9399 25.4 59.3499 25.4H55.8599C55.8599 24.36 55.9499 23.54 56.1299 22.96H56.1099Z" fill="#F8FAF9"/>
<path d="M79.5899 17.3199L76.3399 22.7699L72.5799 17.3199H66.3799L72.7799 26.5999L66.3799 36.4799H72.6099L75.8699 31.0699L79.5899 36.4799H85.8199L79.4199 27.2199L85.8199 17.3199H79.5899Z" fill="#F8FAF9"/>
<path d="M103.3 19.55C102.75 18.71 102.05 18.07 101.18 17.65C100.31 17.22 99.3099 17.01 98.1699 17.01C97.4599 17.01 96.8099 17.11 96.2299 17.29C95.6499 17.48 95.1099 17.73 94.6099 18.06C94.1099 18.38 93.6399 18.73 93.1899 19.11L92.1899 17.33H87.0299V44.92H93.1899V35.7C93.8999 36.06 94.6999 36.32 95.5799 36.5C96.4599 36.68 97.3199 36.77 98.1799 36.77C99.9599 36.77 101.34 36.37 102.31 35.58C103.28 34.78 103.97 33.65 104.36 32.18C104.75 30.71 104.95 28.96 104.95 26.95C104.95 25.34 104.81 23.91 104.54 22.68C104.27 21.45 103.86 20.41 103.31 19.56L103.3 19.55ZM98.3899 29.92C98.1299 30.61 97.7899 31.08 97.3799 31.33C96.9599 31.58 96.5399 31.7 96.1199 31.7C95.5699 31.7 95.0299 31.63 94.4999 31.5C93.9699 31.37 93.5299 31.2 93.1999 30.98V22.79C93.5099 22.6 93.9199 22.41 94.4499 22.22C94.9699 22.03 95.5399 21.94 96.1599 21.94C96.6799 21.94 97.1399 22.08 97.5499 22.37C97.9499 22.66 98.2599 23.16 98.4799 23.88C98.6899 24.6 98.7999 25.62 98.7999 26.92C98.7999 28.22 98.6699 29.22 98.4099 29.91L98.3899 29.92Z" fill="#F8FAF9"/>
<path d="M118.85 30.0299C118.45 30.3899 117.93 30.6799 117.3 30.9199C116.67 31.1599 116.12 31.2799 115.64 31.2799C114.95 31.2799 114.39 31.1299 113.97 30.8199C113.54 30.5099 113.33 29.9099 113.33 28.9999V17.3199H107.17V30.9199C107.17 32.6999 107.65 34.1099 108.61 35.1399C109.57 36.1699 110.89 36.6899 112.58 36.6899C113.77 36.6899 114.89 36.4799 115.96 36.0499C117.03 35.6199 117.99 35.1399 118.84 34.5899L119.87 36.4799H124.96V17.3299H118.84V30.0399L118.85 30.0299Z" fill="#F8FAF9"/>
<path d="M139 17.04C137.88 17.04 136.92 17.34 136.12 17.95C135.31 18.55 134.6 19.27 133.98 20.1L132.59 17.32H127.82V36.47H133.98V25.11C134.31 24.71 134.69 24.38 135.1 24.13C135.51 23.88 135.98 23.69 136.49 23.56C137 23.43 137.56 23.36 138.18 23.36C138.54 23.36 138.91 23.38 139.32 23.41C139.72 23.45 140.11 23.49 140.5 23.53V17.19C140.26 17.12 140.01 17.07 139.73 17.05C139.46 17.03 139.21 17.01 139 17.01V17.04Z" fill="#F8FAF9"/>
<path d="M145.68 18.04C144.48 18.51 143.6 19.21 143.03 20.14C142.46 21.07 142.18 22.23 142.18 23.63C142.18 24.34 142.27 25.04 142.46 25.71C142.65 26.39 142.96 27.01 143.39 27.58C143.82 28.15 144.39 28.65 145.1 29.08C144.1 29.32 143.33 29.77 142.79 30.45C142.24 31.13 141.97 31.95 141.97 32.92C141.97 34.15 142.52 35.2 143.63 36.05C143.72 36.12 143.83 36.19 143.93 36.25V36.26C143.16 36.64 142.5 37.13 141.98 37.75C141.39 38.46 141.09 39.32 141.09 40.31V40.77C141.09 41.74 141.37 42.57 141.93 43.24C142.49 43.92 143.24 44.43 144.19 44.79C145.14 45.15 146.2 45.32 147.36 45.32H153.27C155.81 45.32 157.67 44.76 158.86 43.65C160.05 42.53 160.64 41 160.64 39.06V38.67C160.64 37.22 160.36 36.07 159.79 35.2C159.22 34.33 158.41 33.71 157.37 33.33C156.33 32.95 155.08 32.76 153.63 32.76H148.68C148.28 32.76 147.92 32.7 147.61 32.56C147.3 32.43 147.15 32.19 147.15 31.83C147.15 31.45 147.32 31.18 147.67 31.01C148.01 30.84 148.42 30.76 148.9 30.76H152.42C154.1 30.76 155.45 30.51 156.46 30.01C157.47 29.51 158.21 28.82 158.68 27.95C159.15 27.07 159.39 26.06 159.39 24.92C159.39 24.28 159.34 23.73 159.23 23.26C159.12 22.8 158.99 22.41 158.84 22.08C158.69 21.76 158.51 21.48 158.32 21.24L160.78 20.67V17.29H150.35C148.45 17.29 146.9 17.53 145.7 18L145.68 18.04ZM147.17 38.15C147.35 37.89 147.6 37.69 147.92 37.54C148.01 37.5 148.19 37.42 148.41 37.32H148.42C148.55 37.32 148.68 37.32 148.82 37.32H152.56C153.03 37.32 153.44 37.39 153.77 37.52C154.1 37.65 154.36 37.83 154.53 38.07C154.71 38.31 154.8 38.59 154.8 38.92V39.42C154.8 39.97 154.59 40.38 154.16 40.65C153.73 40.92 153.18 41.06 152.49 41.06H149.11C148.37 41.06 147.82 40.91 147.45 40.6C147.08 40.29 146.9 39.88 146.9 39.35V39.07C146.9 38.71 146.99 38.41 147.17 38.14V38.15ZM152.94 22.11C153.24 22.24 153.46 22.47 153.6 22.79C153.74 23.11 153.81 23.53 153.81 24.05C153.81 24.5 153.75 24.89 153.63 25.22C153.51 25.55 153.3 25.8 152.99 25.95C152.68 26.1 152.25 26.18 151.71 26.18H149.72C149.01 26.18 148.49 26.01 148.17 25.66C147.85 25.32 147.69 24.76 147.69 24C147.69 23.24 147.86 22.67 148.19 22.36C148.52 22.05 149.06 21.9 149.79 21.9H151.75C152.25 21.9 152.65 21.97 152.94 22.1V22.11Z" fill="#F8FAF9"/>
<path d="M177.79 19.08C177.09 18.33 176.17 17.8 175.03 17.48C173.89 17.16 172.49 17 170.83 17C169.17 17 167.83 17.15 166.68 17.46C165.53 17.77 164.6 18.29 163.89 19.03C163.18 19.77 162.66 20.77 162.34 22.04C162.02 23.31 161.86 24.92 161.86 26.86C161.86 28.66 162.01 30.19 162.32 31.43C162.63 32.68 163.14 33.69 163.85 34.46C164.56 35.23 165.49 35.79 166.64 36.13C167.79 36.47 169.19 36.65 170.82 36.65C172.45 36.65 173.92 36.49 175.07 36.17C176.22 35.85 177.15 35.32 177.85 34.57C178.55 33.82 179.05 32.82 179.36 31.56C179.67 30.3 179.82 28.74 179.82 26.86C179.82 24.98 179.65 23.38 179.32 22.11C178.99 20.84 178.47 19.83 177.77 19.08H177.79ZM173.52 29.5C173.41 30.16 173.25 30.66 173.04 30.98C172.83 31.3 172.54 31.51 172.17 31.62C171.8 31.73 171.36 31.78 170.84 31.78C170.32 31.78 169.88 31.73 169.52 31.62C169.16 31.51 168.87 31.3 168.65 30.98C168.42 30.66 168.26 30.17 168.17 29.5C168.07 28.84 168.03 27.95 168.03 26.83C168.03 25.71 168.08 24.82 168.17 24.16C168.26 23.5 168.42 23 168.65 22.68C168.88 22.36 169.17 22.15 169.52 22.06C169.88 21.97 170.31 21.92 170.84 21.92C171.37 21.92 171.81 21.97 172.17 22.06C172.54 22.16 172.83 22.36 173.04 22.68C173.25 23 173.41 23.49 173.52 24.16C173.63 24.82 173.68 25.71 173.68 26.83C173.68 27.95 173.63 28.84 173.52 29.5Z" fill="#F8FAF9"/>
<path d="M191.65 24.48H188.48C188.05 24.48 187.7 24.45 187.41 24.39C187.13 24.33 186.92 24.22 186.81 24.05C186.69 23.88 186.63 23.66 186.63 23.37V22.87C186.63 22.44 186.75 22.15 187 21.98C187.25 21.81 187.63 21.73 188.16 21.73H196.38V18.13C195.95 17.96 195.35 17.8 194.57 17.65C193.79 17.5 192.94 17.37 192.04 17.28C191.14 17.18 190.27 17.14 189.44 17.14C187.35 17.14 185.73 17.37 184.56 17.82C183.39 18.27 182.58 18.92 182.1 19.76C181.62 20.6 181.39 21.64 181.39 22.87V24.01C181.39 25.34 181.65 26.4 182.17 27.18C182.69 27.96 183.4 28.53 184.29 28.87C185.18 29.21 186.16 29.39 187.23 29.39H190.36C191.05 29.39 191.5 29.49 191.73 29.67C191.96 29.86 192.07 30.12 192.07 30.45V30.98C192.07 31.26 192.02 31.48 191.91 31.64C191.8 31.79 191.64 31.91 191.41 31.98C191.18 32.05 190.87 32.09 190.47 32.09H181.78V35.69C182.21 35.86 182.71 36.01 183.29 36.14C183.87 36.27 184.49 36.37 185.16 36.44C185.82 36.51 186.5 36.57 187.19 36.62C187.88 36.67 188.54 36.69 189.18 36.69C190.96 36.69 192.45 36.52 193.65 36.19C194.85 35.86 195.75 35.31 196.36 34.53C196.96 33.76 197.27 32.73 197.27 31.45V29.63C197.27 28.02 196.84 26.75 195.99 25.84C195.14 24.93 193.69 24.47 191.65 24.47V24.48Z" fill="#F8FAF9"/>
<path d="M201.62 32.88H200.48C200.15 32.88 199.98 33.05 199.98 33.38V35.98C199.98 36.31 200.15 36.48 200.48 36.48H201.62C201.76 36.48 201.88 36.44 201.98 36.37C202.08 36.3 202.12 36.17 202.12 35.98V33.38C202.12 33.05 201.95 32.88 201.62 32.88Z" fill="#F8FAF9"/>
<path d="M210.77 34.3899C209.89 33.9799 209.2 33.1899 208.71 32.0399C208.21 30.8899 207.96 29.2499 207.96 27.1099C207.96 24.8599 208.2 23.1399 208.67 21.9699C209.14 20.7899 209.81 19.9999 210.68 19.5799C211.55 19.1599 212.61 18.9599 213.87 18.9599H219.57V17.7099C218.6 17.5699 217.55 17.4699 216.42 17.4099C215.29 17.3499 214.29 17.3199 213.41 17.3199C212.27 17.3199 211.24 17.4599 210.31 17.7299C209.38 17.9999 208.6 18.4999 207.94 19.2099C207.29 19.9199 206.78 20.9099 206.43 22.1599C206.07 23.4199 205.9 25.0299 205.9 26.9999C205.9 28.9699 206.09 30.5799 206.47 31.8399C206.85 33.0999 207.38 34.0799 208.05 34.7799C208.73 35.4799 209.52 35.9699 210.42 36.2599C211.32 36.5399 212.31 36.6899 213.38 36.6899C214.21 36.6899 215.02 36.6699 215.8 36.6399C216.58 36.5999 217.32 36.5499 218.01 36.4799C218.7 36.4099 219.31 36.3399 219.86 36.2699V35.0199H213.88C212.69 35.0199 211.66 34.8099 210.78 34.3999L210.77 34.3899Z" fill="#F8FAF9"/>
<path d="M236.68 19.1C235.99 18.41 235.14 17.94 234.13 17.68C233.12 17.42 231.96 17.29 230.66 17.29C229.36 17.29 228.2 17.42 227.19 17.68C226.18 17.94 225.34 18.42 224.66 19.1C223.98 19.79 223.47 20.77 223.13 22.04C222.79 23.31 222.61 24.95 222.61 26.97C222.61 28.99 222.78 30.59 223.11 31.86C223.44 33.13 223.95 34.12 224.64 34.81C225.33 35.51 226.18 36 227.18 36.27C228.19 36.54 229.35 36.68 230.65 36.68C231.95 36.68 233.12 36.54 234.14 36.27C235.16 36 236.01 35.52 236.69 34.83C237.37 34.14 237.88 33.16 238.22 31.87C238.56 30.59 238.74 28.95 238.74 26.96C238.74 24.97 238.57 23.3 238.22 22.03C237.88 20.76 237.36 19.78 236.67 19.09L236.68 19.1ZM236.27 31.21C236 32.28 235.61 33.08 235.11 33.61C234.61 34.14 233.98 34.5 233.22 34.68C232.46 34.86 231.61 34.95 230.66 34.95C229.71 34.95 228.83 34.86 228.1 34.68C227.37 34.5 226.74 34.15 226.23 33.61C225.72 33.08 225.33 32.28 225.07 31.21C224.81 30.14 224.68 28.73 224.68 26.97C224.68 25.21 224.81 23.77 225.07 22.72C225.33 21.66 225.72 20.87 226.23 20.33C226.74 19.8 227.36 19.44 228.1 19.26C228.84 19.08 229.69 18.99 230.66 18.99C231.63 18.99 232.46 19.08 233.22 19.26C233.98 19.44 234.61 19.79 235.11 20.33C235.61 20.86 235.99 21.66 236.27 22.72C236.54 23.78 236.68 25.19 236.68 26.97C236.68 28.75 236.54 30.14 236.27 31.21Z" fill="#F8FAF9"/>
<path d="M270.79 20.3699C270.36 19.4099 269.7 18.6399 268.81 18.0599C267.92 17.4799 266.81 17.1899 265.48 17.1899C264.58 17.1899 263.62 17.3399 262.61 17.6399C261.6 17.9399 260.65 18.2999 259.76 18.7299C258.87 19.1599 258.13 19.6099 257.54 20.0799C257.11 19.2299 256.47 18.5299 255.62 17.9999C254.77 17.4699 253.75 17.1999 252.56 17.1999C251.11 17.1999 249.77 17.4399 248.54 17.9299C247.31 18.4199 246.2 18.9899 245.23 19.6599L244.7 17.5199H243.17V36.4899H245.23V21.0799C245.96 20.6799 246.67 20.3199 247.35 20.0099C248.03 19.6999 248.73 19.4699 249.45 19.3199C250.17 19.1699 250.99 19.0899 251.89 19.0899C252.79 19.0899 253.6 19.2899 254.24 19.6899C254.88 20.0899 255.38 20.6399 255.74 21.3299C256.1 22.0199 256.27 22.7999 256.27 23.6799V36.4999H258.33V23.6799C258.33 23.2799 258.29 22.8799 258.21 22.4899C258.13 22.0999 258.01 21.7199 257.87 21.3699C258.96 20.7299 260.12 20.1899 261.36 19.7499C262.59 19.3099 263.79 19.0899 264.96 19.0899C265.89 19.0899 266.67 19.2899 267.33 19.6899C267.98 20.0899 268.49 20.6399 268.84 21.3299C269.2 22.0199 269.37 22.7999 269.37 23.6799V36.4999H271.43V23.5399C271.43 22.3999 271.22 21.3499 270.79 20.3899V20.3699Z" fill="#F8FAF9"/>
<path d="M25.61 36.51C25.5 36.05 25.55 35.61 25.6 35.15C25.62 34.92 25.65 34.69 25.66 34.45C25.67 33.99 25.67 33.53 25.66 33.07C25.66 32.68 25.66 32.29 25.66 31.9C25.66 31.54 25.63 31.15 25.35 30.83C25.64 30.18 25.67 29.51 25.66 28.89C25.66 28.49 25.66 28.08 25.66 27.68C25.66 27.35 25.66 27.02 25.66 26.68C25.66 26.45 25.66 26.13 25.42 25.94C25.3 25.84 25.28 25.82 25.44 25.54C25.54 25.37 25.59 25.15 25.6 24.93V24.64C25.63 23.67 25.66 22.7 25.66 21.74C25.66 21.51 25.58 21.3 25.51 21.12C25.48 21.04 25.45 20.96 25.43 20.88C25.43 20.87 25.42 20.82 25.43 20.73C25.45 20.58 25.49 20.43 25.52 20.27C25.59 19.95 25.66 19.61 25.66 19.26C25.66 17.8 25.64 16.33 25.62 14.87L25.6 13.39C25.6 13.34 25.6 13.29 25.57 13.15C25.54 12.97 25.38 12.83 25.19 12.83H24.54C24.33 12.83 24.16 13 24.16 13.21V15.65L23.11 16.05V13.93C23.11 13.72 22.94 13.55 22.73 13.55H22.08C21.88 13.55 21.71 13.71 21.7 13.91V14.04C21.69 14.13 21.68 14.22 21.68 14.31V15C21.68 15.51 21.68 16.03 21.68 16.54V16.6C21.32 16.75 20.97 16.89 20.59 17.03V0.789985C20.59 0.309985 20.39 0.0499845 19.97 -1.54641e-05C19.72 -0.0200155 19.52 0.0299845 19.37 0.159985C19.17 0.349985 19.14 0.619985 19.14 0.809985C19.14 2.66998 19.14 12.77 19.14 16.24V17.07C18.77 16.93 18.42 16.79 18.02 16.66C18.02 16.66 18.02 16.64 18.02 16.56C18.03 15.98 18.03 15.4 18.02 14.81V14.35C18.02 14.25 18.02 14.15 18 14.05V13.94C17.98 13.74 17.81 13.58 17.61 13.58H16.95C16.74 13.58 16.57 13.75 16.57 13.96V16.06L15.47 15.65V13.22C15.47 13.01 15.3 12.84 15.09 12.84H14.45C14.26 12.84 14.08 13.08 14.06 13.27C14.05 13.35 14.04 13.42 14.04 13.5V14.91C14.03 16.43 14.02 17.94 14.04 19.46C14.04 19.78 14.12 20.08 14.2 20.37C14.24 20.51 14.27 20.64 14.3 20.78V20.91C14.27 20.99 14.24 21.06 14.21 21.14C14.14 21.31 14.07 21.5 14.06 21.72C14.03 22.32 14.02 22.93 14.06 23.54C14.06 23.71 14.06 23.87 14.06 24.04C14.05 24.55 14.04 25.12 14.33 25.67C14.38 25.77 14.41 25.84 14.36 25.89C14.13 26.06 14.07 26.39 14.07 26.63C14.06 27.14 14.06 27.64 14.07 28.15V28.38V28.76C14.07 29.45 14.05 30.17 14.38 30.86C14.09 31.17 14.05 31.56 14.05 31.85C14.05 32.55 14.05 33.26 14.05 33.96C14.05 34.63 14.09 35.2 14.32 35.76L14.29 35.86L14.22 36.04C14.15 36.2 14.08 36.37 14.08 36.58C14.06 37.26 14.07 37.93 14.07 38.61V39.24C14.07 40.71 14.87 41.86 16.25 42.38C16.48 42.47 16.71 42.56 16.94 42.65C17.22 42.76 17.49 42.87 17.77 42.97C18.13 43.1 18.5 43.23 18.88 43.37L19.17 43.47V46.97C19.17 48.64 19.17 50.46 19.18 51.01C19.18 51.24 19.25 51.42 19.38 51.55C19.5 51.67 19.67 51.73 19.87 51.73H19.92C20.13 51.73 20.61 51.63 20.6 50.98C20.6 50.56 20.6 47.65 20.6 46.16V43.46L20.68 43.44C20.93 43.37 21.16 43.31 21.38 43.22C21.83 43.05 22.27 42.88 22.71 42.7L23.6 42.35C24.9 41.85 25.68 40.73 25.7 39.36C25.7 39.11 25.72 38.85 25.73 38.59C25.77 37.9 25.8 37.19 25.65 36.51M24.21 34.63C24.18 35.27 23.91 35.63 23.35 35.81C22.71 36.02 22.07 36.28 21.46 36.52C21.18 36.64 20.9 36.75 20.61 36.86H20.59V34.69C20.59 34.32 20.59 33.95 20.55 33.62C21.68 33.16 22.82 32.71 23.96 32.26L24.23 32.15C24.23 32.28 24.23 32.42 24.23 32.55C24.23 33.26 24.25 33.94 24.21 34.62M15.51 22.05L18.24 23.12C18.54 23.24 18.84 23.36 19.15 23.48C19.14 24.26 19.15 25.04 19.15 25.82V26.97V27.01H19.12L18.9 26.91C18.12 26.61 17.34 26.31 16.56 25.99C15.95 25.74 15.5 25.06 15.51 24.38C15.51 23.73 15.51 23.08 15.51 22.41V22.06V22.05ZM20.59 27C20.59 25.84 20.59 24.68 20.55 23.53C21.69 23.06 22.84 22.6 23.99 22.15L24.17 22.08C24.17 22.23 24.17 22.39 24.17 22.54C24.18 23.32 24.19 24.05 24.14 24.79C24.09 25.49 23.53 25.83 23.2 25.97C22.39 26.31 21.57 26.63 20.75 26.94L20.58 27.01L20.59 27ZM24.22 29.53C24.17 30.3 23.8 30.79 23.09 31.04C22.5 31.25 21.91 31.48 21.33 31.72L20.59 32.02V31.85C20.59 30.77 20.59 29.7 20.56 28.6C21.65 28.15 22.75 27.72 23.84 27.29L24.23 27.14C24.23 27.28 24.23 27.41 24.23 27.54C24.23 28.23 24.25 28.89 24.21 29.54M19.15 28.58C19.15 29.3 19.15 30.02 19.15 30.74V32.02L18.46 31.75C17.78 31.49 17.1 31.23 16.43 30.95C15.74 30.66 15.56 30.09 15.54 29.66C15.5 28.97 15.51 28.29 15.52 27.56C15.52 27.42 15.52 27.29 15.52 27.15L18.17 28.19C18.49 28.32 18.82 28.45 19.16 28.58M15.51 32.58C15.51 32.44 15.51 32.31 15.51 32.17C15.86 32.3 16.21 32.43 16.62 32.59C17.45 32.92 18.28 33.24 19.13 33.57C19.14 34.55 19.14 35.54 19.14 36.53V36.87C18.89 36.77 18.64 36.67 18.39 36.57C17.7 36.29 17 36.01 16.3 35.77C15.81 35.6 15.57 35.26 15.54 34.71C15.5 34.01 15.51 33.31 15.52 32.57M24.17 19.86C24.14 20.35 23.87 20.68 23.34 20.87C22.62 21.12 21.92 21.41 21.21 21.69L20.58 21.94V20.98C20.58 20.23 20.58 19.47 20.61 18.65C21.73 18.19 22.86 17.74 23.99 17.3L24.18 17.22C24.18 17.37 24.18 17.51 24.18 17.66C24.18 18.42 24.2 19.14 24.16 19.86M19.15 21.96C18.89 21.86 18.63 21.75 18.37 21.64C17.73 21.38 17.07 21.11 16.4 20.89C15.84 20.7 15.56 20.34 15.52 19.75C15.48 19.06 15.49 18.36 15.5 17.63C15.5 17.49 15.5 17.36 15.5 17.22L17.03 17.82C17.72 18.09 18.42 18.37 19.13 18.68C19.15 19.76 19.15 20.84 19.15 21.92V21.97V21.96ZM15.51 37.02L18.16 38.05C18.5 38.18 18.83 38.31 19.14 38.41C19.15 39.56 19.15 40.72 19.14 41.95L18.64 41.76C17.93 41.49 17.19 41.21 16.49 40.89C15.86 40.61 15.53 40.1 15.52 39.4C15.51 38.74 15.51 38.08 15.52 37.4V37.02H15.51ZM20.59 41.95V40.89C20.59 40.1 20.59 39.3 20.59 38.51L20.67 38.41C21.54 38.07 22.4 37.73 23.26 37.39L24.22 37.01C24.22 37.15 24.22 37.3 24.22 37.44C24.23 38.18 24.24 38.87 24.19 39.57C24.13 40.39 23.55 40.78 23.08 40.96L20.62 41.93H20.59" fill="#F8FAF9"/>
<path d="M18.4399 47.9699V47.1299C17.7299 46.8899 16.7999 46.1699 14.7399 44.9699C9.90994 42.1599 8.10994 41.2199 4.90994 36.5299C3.35994 34.2599 2.44994 31.8999 2.52994 29.0199C2.69994 22.5499 2.60994 18.5899 2.55994 12.1099C2.55994 11.1599 2.83994 10.6899 3.72994 10.3499C9.42994 8.16994 13.9599 7.04994 18.4399 6.96994C18.4399 6.16994 18.4399 5.40994 18.4399 4.68994C12.6999 4.75994 6.94994 5.87994 1.19994 8.07994C0.319942 8.41994 0.0199418 8.88994 0.0299418 9.83994C0.0699418 16.3199 0.169942 22.7999 -5.82119e-05 29.2699C-0.0800582 32.1399 0.839942 34.5099 2.37994 36.7799C5.57994 41.4699 9.89994 44.9399 14.7299 47.7499C16.7999 48.9499 17.7299 49.6699 18.4399 49.9099C18.4399 49.3599 18.4399 48.6699 18.4399 47.9699Z" fill="#F8FAF9"/>
<path d="M39.7299 9.84995C39.7299 8.89995 39.4499 8.42995 38.5599 8.08995C32.7999 5.88995 27.0499 4.75995 21.2999 4.69995V6.97995C25.7899 7.05995 30.3299 8.17995 36.0399 10.36C36.9199 10.7 37.2199 11.17 37.2099 12.12C37.1699 18.6 37.0699 22.55 37.2399 29.03C37.3199 31.9 36.3999 34.27 34.8599 36.54C31.6599 41.23 29.8699 42.1799 25.0299 44.9799C22.9299 46.1999 21.9999 46.92 21.2899 47.15C21.2899 48.01 21.2899 49.12 21.2899 49.93C21.9999 49.7 22.9299 48.9799 25.0299 47.7599C29.8599 44.9499 34.1799 41.48 37.3799 36.79C38.9299 34.52 39.8399 32.16 39.7599 29.28C39.5899 22.81 39.6799 16.32 39.7299 9.84995Z" fill="#F8FAF9"/>
</g>
<defs>
<clipPath id="clip0_2_211">
<rect width="271.43" height="51.73" fill="white"/>
</clipPath>
</defs>
</svg>
